<?xml version="1.0" encoding="iso-8859-1"?>
<!-- Generator: Adobe Illustrator 19.0.0, SVG Export Plug-In . SVG Version: 6.00 Build 0)  -->
<svg version="1.1" id="Capa_1" xmlns="http://www.w3.org/2000/svg" xmlns:xlink="http://www.w3.org/1999/xlink" x="0px" y="0px"
	 viewBox="0 0 464.544 464.544" style="enable-background:new 0 0 464.544 464.544;" xml:space="preserve">
<path style="fill:#F4D8C3;" d="M424.272,200.544c-13.255,0-24,10.745-24,24v46.232c-9.76-8.89-24.879-8.184-33.769,1.576
	c-4.032,4.426-6.255,10.205-6.231,16.192v40l-38.544,22.024c-20.687,11.822-33.455,33.821-33.456,57.648v56.328h64v-32
	l31.328-20.888c38.729-25.783,62.699-68.617,64.416-115.112h0.256v-72C448.272,211.29,437.527,200.544,424.272,200.544
	L424.272,200.544z"/>
<path style="fill:#C63846;" d="M218.944,283.216L90.24,154.512c-29.364-29.371-34.971-74.957-13.6-110.568
	c7.642-12.738,18.302-23.398,31.04-31.04c35.611-21.371,81.197-15.764,110.568,13.6l14.024,14.04l14.032-14.032
	c29.371-29.364,74.957-34.971,110.568-13.6c12.738,7.642,23.398,18.302,31.04,31.04c21.371,35.611,15.764,81.197-13.6,110.568
	L245.6,283.216C238.24,290.577,226.306,290.578,218.944,283.216C218.945,283.217,218.944,283.217,218.944,283.216z"/>
<path style="fill:#751616;" d="M224.272,200.544c-3.442-0.003-6.496-2.206-7.584-5.472l-25.904-77.68l-15.312,30.728
	c-1.362,2.725-4.153,4.441-7.2,4.424h-128c-4.418,0-8-3.582-8-8s3.582-8,8-8h123.056l21.784-43.576
	c1.977-3.952,6.782-5.553,10.734-3.576c1.897,0.949,3.339,2.612,4.01,4.624l23.568,70.672l25.12-94.208
	c0.987-3.536,4.225-5.97,7.896-5.936c3.689,0.075,6.848,2.662,7.648,6.264l12.224,55.024l13.56-18.088
	c2.632-3.549,7.642-4.293,11.191-1.661c1.021,0.757,1.847,1.746,2.409,2.885l13.744,27.576h107.056c4.418,0,8,3.582,8,8
	s-3.582,8-8,8h-112c-3.047,0.017-5.838-1.699-7.2-4.424l-10.168-20.376l-16.232,21.6c-2.647,3.537-7.661,4.259-11.198,1.612
	c-1.533-1.147-2.604-2.806-3.018-4.676l-8.888-40L232,194.608c-0.91,3.416-3.955,5.829-7.488,5.936H224.272z"/>
<g>
	<path style="fill:#DDB9A2;" d="M336.272,464.544h16v-32l31.328-20.888c38.729-25.783,62.699-68.617,64.416-115.112h0.256v-72
		c0-13.255-10.745-24-24-24c5.262,10.521,8.001,22.124,8,33.888v49.6c0,8.327-0.822,16.634-2.456,24.8l-1.248,6.264
		c-2.841,14.204-8.104,27.813-15.56,40.232c-8.409,14.023-19.462,26.279-32.544,36.088l-44.192,33.128L336.272,464.544z"/>
	<path style="fill:#DDB9A2;" d="M384.272,264.544c-2.686,0.03-5.347,0.514-7.872,1.432c9.503,3.4,15.851,12.395,15.872,22.488v40.08
		l16,0.08v-40.08C408.272,275.29,397.527,264.544,384.272,264.544z"/>
</g>
<path style="fill:#FFF8E3;" d="M384.272,272.544c8.837,0,16,7.163,16,16v8l0,0h-32l0,0v-8
	C368.272,279.708,375.436,272.544,384.272,272.544z"/>
<path style="fill:#F4D8C3;" d="M40.272,200.544c13.255,0,24,10.745,24,24v46.232c9.76-8.89,24.879-8.184,33.769,1.576
	c4.032,4.426,6.255,10.205,6.231,16.192v40l38.544,22.024c20.687,11.822,33.455,33.821,33.456,57.648v56.328h-64v-32l-31.328-20.888
	c-38.729-25.783-62.699-68.617-64.416-115.112h-0.256v-72C16.272,211.29,27.017,200.544,40.272,200.544z"/>
<g>
	<path style="fill:#DDB9A2;" d="M128.272,464.544h-16v-32l-31.328-20.888c-38.729-25.783-62.699-68.617-64.416-115.112h-0.256v-72
		c0-13.255,10.745-24,24-24c-5.262,10.521-8.001,22.124-8,33.888v49.6c0,8.327,0.822,16.634,2.456,24.8l1.248,6.264
		c2.841,14.204,8.104,27.813,15.56,40.232c8.409,14.023,19.462,26.279,32.544,36.088l44.192,33.128V464.544z"/>
	<path style="fill:#DDB9A2;" d="M80.272,264.544c2.686,0.03,5.347,0.514,7.872,1.432c-9.503,3.4-15.851,12.395-15.872,22.488v40.08
		l-16,0.08v-40.08C56.272,275.29,67.017,264.544,80.272,264.544z"/>
</g>
<path style="fill:#FFF8E3;" d="M96.272,296.544h-32l0,0v-8c0-8.837,7.163-16,16-16s16,7.163,16,16V296.544L96.272,296.544z"/>
<g>
</g>
<g>
</g>
<g>
</g>
<g>
</g>
<g>
</g>
<g>
</g>
<g>
</g>
<g>
</g>
<g>
</g>
<g>
</g>
<g>
</g>
<g>
</g>
<g>
</g>
<g>
</g>
<g>
</g>
</svg>
