<?xml version="1.0" encoding="iso-8859-1"?>
<!-- Generator: Adobe Illustrator 19.0.0, SVG Export Plug-In . SVG Version: 6.00 Build 0)  -->
<svg version="1.1" id="Capa_1" xmlns="http://www.w3.org/2000/svg" xmlns:xlink="http://www.w3.org/1999/xlink" x="0px" y="0px"
	 viewBox="0 0 439.912 439.912" style="enable-background:new 0 0 439.912 439.912;" xml:space="preserve">
<path style="fill:#E5CA8F;" d="M239.902,259.956c-53.016,0-96,19.696-96,44v28c0.034,2.749,0.599,5.466,1.664,8
	c8.216,20.472,47.288,36,94.336,36s86.12-15.528,94.336-36c1.065-2.534,1.63-5.251,1.664-8v-28
	C335.902,279.652,292.918,259.956,239.902,259.956z"/>
<path style="fill:#A08858;" d="M239.902,235.956c-53.016,0-96,19.696-96,44v28c0.034,2.749,0.599,5.466,1.664,8
	c8.216,20.472,47.288,36,94.336,36s86.12-15.528,94.336-36c1.065-2.534,1.63-5.251,1.664-8v-28
	C335.902,255.652,292.918,235.956,239.902,235.956z"/>
<path style="fill:#E5CA8F;" d="M239.902,223.956c-53.016,0-96,19.696-96,44v28c0.034,2.749,0.599,5.466,1.664,8
	c8.216,20.472,47.288,36,94.336,36s86.12-15.528,94.336-36c1.065-2.534,1.63-5.251,1.664-8v-28
	C335.902,243.652,292.918,223.956,239.902,223.956z"/>
<path style="fill:#A08858;" d="M239.902,199.956c-53.016,0-96,19.696-96,44v28c0.034,2.749,0.599,5.466,1.664,8
	c8.216,20.472,47.288,36,94.336,36s86.12-15.528,94.336-36c1.065-2.534,1.63-5.251,1.664-8v-28
	C335.902,219.652,292.918,199.956,239.902,199.956z"/>
<g>
	<path style="fill:#6D6D6D;" d="M239.902,419.956c-110.406-0.123-199.877-89.594-200-200c0-4.418,3.582-8,8-8s8,3.582,8,8
		c-0.004,101.62,82.373,184.003,183.993,184.007S423.898,321.59,423.902,219.97S341.529,35.967,239.909,35.963
		c-48.914-0.002-95.816,19.473-130.343,54.121c-3.173,3.074-8.238,2.994-11.312-0.18c-2.999-3.096-3.006-8.012-0.016-11.116
		C176.203,0.544,302.836,0.317,381.08,78.282s78.471,204.598,0.506,282.842C344.056,398.789,293.073,419.959,239.902,419.956z"/>
	<path style="fill:#6D6D6D;" d="M87.902,267.956c-2.122,0-4.156-0.844-5.656-2.344l-34.344-34.344l-34.344,34.344
		c-3.178,3.07-8.242,2.982-11.312-0.196c-2.994-3.1-2.994-8.016,0-11.116l40-40c3.124-3.123,8.188-3.123,11.312,0l40,40
		c3.124,3.125,3.123,8.19-0.002,11.314C92.056,267.113,90.023,267.956,87.902,267.956z"/>
</g>
<circle style="fill:#D8B150;" cx="63.902" cy="147.956" r="32"/>
<path style="fill:#E5CA8F;" d="M239.902,187.956c-53.016,0-96,19.696-96,44v28c0.034,2.749,0.599,5.466,1.664,8
	c8.216,20.472,47.288,36,94.336,36s86.12-15.528,94.336-36c1.065-2.534,1.63-5.251,1.664-8v-28
	C335.902,207.652,292.918,187.956,239.902,187.956z"/>
<ellipse style="fill:#D8B150;" cx="239.902" cy="231.956" rx="96" ry="44"/>
<path style="fill:#6D5011;" d="M276.59,141.332c-6.012-5.984-14.142-9.353-22.624-9.376h-6.064v-31.64
	c0.312,0.056,0.624,0,0.928,0.12l29.136,7.28l3.872-15.52l-29.136-7.28c-1.577-0.389-3.182-0.657-4.8-0.8v-16.16h-16v16h-6.064
	c-17.673,0-32,14.327-32,32s14.327,32,32,32h6.064v31.64c-0.312-0.056-0.624,0-0.928-0.12l-29.136-7.28l-3.872,15.52l29.128,7.28
	c1.577,0.389,3.182,0.657,4.8,0.8v16.16h16v-16h6.064c17.673-0.004,31.997-14.334,31.993-32.007
	c-0.002-8.483-3.372-16.618-9.369-22.617H276.59z M225.838,131.956c-8.837,0-16-7.163-16-16s7.163-16,16-16h6.064v32H225.838z
	 M265.278,175.268c-3.007,2.99-7.072,4.674-11.312,4.688h-6.064v-32h6.064c8.837,0.002,15.998,7.167,15.997,16.003
	C269.962,168.201,268.277,172.268,265.278,175.268z"/>
<g>
</g>
<g>
</g>
<g>
</g>
<g>
</g>
<g>
</g>
<g>
</g>
<g>
</g>
<g>
</g>
<g>
</g>
<g>
</g>
<g>
</g>
<g>
</g>
<g>
</g>
<g>
</g>
<g>
</g>
</svg>
