<?xml version="1.0" encoding="iso-8859-1"?>
<!-- Generator: Adobe Illustrator 19.0.0, SVG Export Plug-In . SVG Version: 6.00 Build 0)  -->
<svg version="1.1" id="Capa_1" xmlns="http://www.w3.org/2000/svg" xmlns:xlink="http://www.w3.org/1999/xlink" x="0px" y="0px"
	 viewBox="0 0 472.106 472.106" style="enable-background:new 0 0 472.106 472.106;" xml:space="preserve">
<g>
	<path style="fill:#D14343;" d="M100.053,136.106c-4.418-0.001-7.999-3.583-7.998-8.002c0-2.121,0.843-4.155,2.342-5.654l64-64
		c3.124-3.123,8.188-3.123,11.312,0l40.664,40.664l50.768-87.008c1.462-2.576,4.24-4.119,7.2-4c2.938,0.092,5.589,1.787,6.904,4.416
		l27.032,54.072l64.152-64.152c3.07-3.178,8.134-3.266,11.312-0.196s3.266,8.134,0.196,11.312c-0.064,0.067-0.13,0.132-0.196,0.196
		l-72,72c-1.809,1.832-4.397,2.668-6.936,2.24c-2.541-0.41-4.729-2.018-5.88-4.32l-25.416-50.768l-48.544,83.2
		c-1.251,2.144-3.426,3.587-5.888,3.904c-2.457,0.295-4.915-0.544-6.68-2.28l-42.344-42.312l-58.344,58.344
		C104.209,135.263,102.175,136.106,100.053,136.106z"/>
	<path style="fill:#D14343;" d="M372.053,56.106c-4.418,0-8-3.582-8-8v-32h-32c-4.418,0-8-3.582-8-8s3.582-8,8-8h40
		c4.418,0,8,3.582,8,8v40C380.053,52.524,376.471,56.106,372.053,56.106z"/>
</g>
<g>
	<path style="fill:#4091DB;" d="M124.053,144.106h32v112h-32V144.106z"/>
	<path style="fill:#4091DB;" d="M188.053,160.106h32v96h-32V160.106z"/>
	<path style="fill:#4091DB;" d="M252.053,200.106h32v56h-32V200.106z"/>
	<path style="fill:#4091DB;" d="M316.053,224.106h32v32h-32V224.106z"/>
</g>
<g>
	<path style="fill:#6D6C6B;" d="M428.053,232.106c-4.418,0-8-3.582-8-8V207.45c0.168-41.83-14.083-82.44-40.352-114.992
		c-2.766-3.446-2.214-8.482,1.232-11.248c3.446-2.766,8.482-2.214,11.248,1.232c28.362,35.497,43.831,79.572,43.872,125.008v16.656
		C436.053,228.524,432.471,232.106,428.053,232.106L428.053,232.106z"/>
	<path style="fill:#6D6C6B;" d="M44.053,232.106c-4.418,0-8-3.582-8-8V207.45C36.526,103.629,115.977,17.244,219.397,8.106
		c4.418-0.362,8.294,2.926,8.656,7.344c0.362,4.418-2.926,8.294-7.344,8.656C125.588,32.515,52.508,111.959,52.053,207.45v16.656
		C52.053,228.524,48.471,232.106,44.053,232.106L44.053,232.106z"/>
</g>
<path style="fill:#6D5011;" d="M370.693,160.106c0-6.478-2.678-12.669-7.4-17.104c-4.162-3.913-9.543-6.277-15.24-6.696V121.85
	l14.144,3.376l3.712-15.568l-17.856-4.256V88.106h-16v16h-5.84c-6.469-0.032-12.699,2.436-17.392,6.888
	c-9.448,8.869-9.918,23.718-1.049,33.167c0.339,0.361,0.689,0.711,1.049,1.049c4.692,4.454,10.923,6.925,17.392,6.896h5.84v15.944
	c-0.589-0.01-1.176-0.077-1.752-0.2l-20.392-4.864l-3.712,15.568l20.424,4.864c1.783,0.401,3.604,0.613,5.432,0.632v16.056h16v-16.2
	c5.682-0.425,11.047-2.786,15.2-6.688C367.991,172.787,370.684,166.593,370.693,160.106L370.693,160.106z M326.213,136.106
	c-2.373,0.022-4.665-0.869-6.4-2.488c-3.046-2.771-3.27-7.486-0.499-10.533c0.159-0.174,0.325-0.341,0.499-0.499
	c1.738-1.614,4.028-2.501,6.4-2.48h5.84v16H326.213z M352.253,165.626c-1.192,1.05-2.641,1.766-4.2,2.072v-15.2
	c1.56,0.309,3.009,1.027,4.2,2.08c3.046,2.771,3.27,7.486,0.499,10.533c-0.159,0.174-0.325,0.341-0.499,0.499V165.626z"/>
<path style="fill:#F4D8C3;" d="M428.053,208.106c-13.255,0-24,10.745-24,24v46.232c-9.76-8.89-24.879-8.184-33.769,1.576
	c-4.032,4.426-6.255,10.205-6.231,16.192v40l-38.544,22.024c-20.687,11.822-33.455,33.821-33.456,57.648v56.328h64v-32
	l31.328-20.888c38.729-25.783,62.699-68.617,64.416-115.112h0.256v-72C452.053,218.851,441.308,208.106,428.053,208.106
	L428.053,208.106z"/>
<g>
	<path style="fill:#DDB9A2;" d="M340.053,472.106h16v-32l31.328-20.888c38.729-25.783,62.699-68.617,64.416-115.112h0.256v-72
		c0-13.255-10.745-24-24-24c5.262,10.521,8.001,22.124,8,33.888v49.6c0,8.327-0.822,16.634-2.456,24.8l-1.248,6.264
		c-2.841,14.204-8.104,27.813-15.56,40.232c-8.409,14.023-19.462,26.279-32.544,36.088l-44.192,33.128L340.053,472.106z"/>
	<path style="fill:#DDB9A2;" d="M388.053,272.106c-2.686,0.03-5.347,0.514-7.872,1.432c9.503,3.4,15.851,12.395,15.872,22.488v40.08
		l16,0.08v-40.08C412.053,282.851,401.308,272.106,388.053,272.106z"/>
</g>
<path style="fill:#FFF8E3;" d="M388.053,280.106c8.837,0,16,7.163,16,16v8l0,0h-32l0,0v-8
	C372.053,287.27,379.217,280.106,388.053,280.106z"/>
<path style="fill:#F4D8C3;" d="M44.053,208.106c13.255,0,24,10.745,24,24v46.232c9.76-8.89,24.879-8.184,33.769,1.576
	c4.032,4.426,6.255,10.205,6.231,16.192v40l38.544,22.024c20.687,11.822,33.455,33.821,33.456,57.648v56.328h-64v-32l-31.328-20.888
	c-38.729-25.783-62.699-68.617-64.416-115.112h-0.256v-72C20.053,218.851,30.798,208.106,44.053,208.106z"/>
<g>
	<path style="fill:#DDB9A2;" d="M132.053,472.106h-16v-32l-31.328-20.888c-38.729-25.783-62.699-68.617-64.416-115.112h-0.256v-72
		c0-13.255,10.745-24,24-24c-5.262,10.521-8.001,22.124-8,33.888v49.6c0,8.327,0.822,16.634,2.456,24.8l1.248,6.264
		c2.841,14.204,8.104,27.813,15.56,40.232c8.409,14.023,19.462,26.279,32.544,36.088l44.192,33.128V472.106z"/>
	<path style="fill:#DDB9A2;" d="M84.053,272.106c2.686,0.03,5.347,0.514,7.872,1.432c-9.503,3.4-15.851,12.395-15.872,22.488v40.08
		l-16,0.08v-40.08C60.053,282.851,70.798,272.106,84.053,272.106z"/>
</g>
<path style="fill:#FFF8E3;" d="M100.053,304.106h-32l0,0v-8c0-8.837,7.163-16,16-16s16,7.163,16,16V304.106L100.053,304.106z"/>
<g>
</g>
<g>
</g>
<g>
</g>
<g>
</g>
<g>
</g>
<g>
</g>
<g>
</g>
<g>
</g>
<g>
</g>
<g>
</g>
<g>
</g>
<g>
</g>
<g>
</g>
<g>
</g>
<g>
</g>
</svg>
