<?xml version="1.0" encoding="iso-8859-1"?>
<!-- Generator: Adobe Illustrator 19.0.0, SVG Export Plug-In . SVG Version: 6.00 Build 0)  -->
<svg version="1.1" id="Capa_1" xmlns="http://www.w3.org/2000/svg" xmlns:xlink="http://www.w3.org/1999/xlink" x="0px" y="0px"
	 viewBox="0 0 464 464" style="enable-background:new 0 0 464 464;" xml:space="preserve">
<path style="fill:#7FCCCB;" d="M148,464V360h-43.728c-7.495,0.005-14.678-2.995-19.944-8.328
	c-5.335-5.405-8.327-12.694-8.328-20.288v-5.872c-0.002-4.858,1.222-9.638,3.56-13.896c24.803-45.27,59.569-84.311,101.672-114.176
	l1.528-1.088c11.581-8.208,24.078-15.038,37.24-20.352h69.28c6.992-0.002,13.829,2.057,19.656,5.92l23.864,15.784
	c20.592,13.787,36.53,33.482,45.72,56.496c6.273,15.574,9.492,32.21,9.48,49V464H148z"/>
<path style="fill:#88D0EF;" d="M312.192,205c-12.421,36.666-30.733,71.063-54.216,101.84L245.6,323.2
	c-2.654,3.532-1.942,8.547,1.59,11.201c3.532,2.654,8.547,1.942,11.201-1.59c0.003-0.004,0.006-0.007,0.008-0.011l12.36-16.336
	c24.537-32.151,43.666-68.09,56.632-106.4c2.216-6.624,3.368-10.664,4-13.328l-13.664-9.04c-0.918,1.189-1.496,2.604-1.672,4.096
	C315.139,196.295,313.847,200.713,312.192,205L312.192,205z"/>
<g>
	<path style="fill:#F8C09C;" d="M245.264,319.472l-0.208-0.208c-4.499-4.642-10.687-7.263-17.152-7.264H208l-22.208-88.8
		l-6.136-24.552c-5.568,4-11,8.165-16.296,12.496l-0.24,0.192c-4.939,4.037-9.755,8.216-14.448,12.536
		c-0.304,0.272-0.592,0.56-0.888,0.84c-27.312,25.068-50.35,54.424-68.208,86.912c-2.342,4.255-3.572,9.031-3.576,13.888v5.872
		c0.001,7.594,2.993,14.883,8.328,20.288c5.266,5.333,12.449,8.333,19.944,8.328h123.832c13.197,0.001,23.897-10.697,23.898-23.894
		C252.003,329.897,249.586,323.931,245.264,319.472L245.264,319.472z"/>
	<circle style="fill:#F8C09C;" cx="244" cy="96" r="96"/>
</g>
<g>
	<path style="fill:#88D0EF;" d="M244,0c-52.904-0.114-95.884,42.68-95.999,95.585c-0.025,11.682,2.086,23.269,6.231,34.191
		l168.464-88.672C304.774,15.347,275.379-0.006,244,0L244,0z"/>
	<path style="fill:#88D0EF;" d="M220,360l-40.344-161.376c-11.151,8.016-21.802,16.704-31.896,26.016L164,360H220z"/>
</g>
<path style="fill:#F8C09C;" d="M148.656,223.864c4.704-4.304,9.52-8.483,14.448-12.536
	C158.16,215.36,153.36,219.568,148.656,223.864z"/>
<g>
	<path style="fill:#88D0EF;" d="M147.76,224.64v0.064c0.296-0.28,0.584-0.568,0.888-0.84
		C148.36,224.128,148.048,224.376,147.76,224.64z"/>
	<path style="fill:#88D0EF;" d="M208,312l-22.208-88.824L208,312z"/>
	<path style="fill:#88D0EF;" d="M163.352,211.12c5.301-4.32,10.733-8.485,16.296-12.496c-5.664,4.059-11.181,8.293-16.552,12.704
		L163.352,211.12z"/>
</g>
<path style="fill:#D1E3EE;" d="M260,152c-4.418-0.001-7.999-3.583-7.998-8.002c0-2.121,0.843-4.155,2.342-5.654l32-32
	c3.178-3.069,8.242-2.982,11.312,0.196c2.994,3.1,2.994,8.015,0,11.116l-32,32C264.156,151.157,262.122,152,260,152L260,152z"/>
<path style="fill:#2BB3CE;" d="M290.456,12.096L227.2,38.64l-39.936-19.952c-4.653,3.407-8.988,7.227-12.952,11.416l33.4,16.696
	l-56.136,23.544c-1.686,6.113-2.758,12.378-3.2,18.704l157.68-66.128C301.225,18.808,295.999,15.183,290.456,12.096z"/>
<path style="fill:#F8C09C;" d="M340,312h48v152h-48V312z"/>
<path style="fill:#DD527C;" d="M287.88,152h-60.176c-4.418,0-8-3.582-8-8s3.582-8,8-8h60.176c4.418,0,8,3.582,8,8
	S292.298,152,287.88,152z"/>
<g>
</g>
<g>
</g>
<g>
</g>
<g>
</g>
<g>
</g>
<g>
</g>
<g>
</g>
<g>
</g>
<g>
</g>
<g>
</g>
<g>
</g>
<g>
</g>
<g>
</g>
<g>
</g>
<g>
</g>
</svg>
