
<svg version="1.0" xmlns="http://www.w3.org/2000/svg"
 width="392.000000pt" height="187.000000pt" viewBox="0 0 392.000000 187.000000"
 preserveAspectRatio="xMidYMid meet">

<g transform="translate(0.000000,187.000000) scale(0.100000,-0.100000)"
fill="#EF565A" stroke="none">
<path d="M1523 1699 c-115 -178 -255 -495 -363 -819 -89 -268 -103 -335 -98
-460 4 -98 4 -98 43 -143 37 -41 71 -65 80 -55 3 2 9 53 15 113 13 139 43 263
118 490 101 302 227 552 380 753 35 46 61 90 58 97 -6 16 -120 81 -158 90 -25
6 -31 1 -75 -66z"/>
<path d="M2720 1738 c-142 -148 -400 -669 -521 -1053 -25 -79 -32 -119 -33
-190 -1 -98 4 -112 62 -182 33 -41 81 -61 69 -29 -10 24 13 161 38 236 69 202
269 469 401 533 75 36 93 5 49 -86 -32 -67 -83 -128 -179 -213 l-78 -69 6 -51
c10 -90 72 -317 104 -380 35 -70 91 -124 128 -124 47 0 112 22 144 49 l33 27
-89 89 c-93 94 -133 156 -180 281 -27 72 -26 94 4 94 31 0 108 58 150 113 84
109 104 248 46 324 -25 33 -29 35 -68 29 -97 -16 -217 -112 -334 -268 -36 -49
-68 -84 -70 -78 -12 36 155 369 261 521 68 98 182 232 229 268 23 19 25 25 18
52 -18 62 -97 139 -142 139 -9 0 -31 -15 -48 -32z"/>
<path d="M3579 1733 c-131 -138 -407 -691 -504 -1008 -45 -145 -57 -277 -32
-337 22 -51 77 -118 97 -118 14 0 18 13 23 73 13 162 63 286 184 456 113 157
239 271 300 271 20 0 23 -5 23 -37 0 -64 -88 -186 -205 -284 -54 -46 -75 -70
-75 -87 0 -13 11 -71 25 -130 46 -200 100 -329 157 -377 29 -24 38 -27 85 -22
56 6 122 37 140 66 9 14 0 25 -52 68 -93 76 -201 248 -229 364 -5 24 -2 28 42
44 57 23 136 100 177 175 27 49 30 64 30 142 0 83 -1 88 -30 118 -36 38 -66
36 -154 -7 -68 -32 -196 -159 -261 -255 -72 -108 -80 -89 -21 49 61 140 107
228 184 348 82 129 124 183 225 287 89 91 90 102 7 184 -65 66 -87 68 -136 17z"/>
<path d="M915 1594 c-71 -7 -221 -13 -331 -13 l-202 -1 -6 -34 c-14 -74 24
-112 141 -142 13 -3 9 -21 -27 -149 -32 -115 -90 -254 -109 -264 -9 -5 -40
-14 -69 -21 -39 -9 -52 -16 -52 -30 0 -18 53 -70 71 -70 18 0 8 -32 -91 -276
l-100 -248 27 -38 c14 -22 38 -47 52 -57 38 -27 92 -53 97 -48 3 3 18 63 34
134 16 70 56 203 89 293 89 246 80 229 121 236 19 3 71 12 116 20 48 9 119 14
178 12 92 -3 97 -2 102 18 10 40 -15 103 -49 125 -28 18 -43 19 -117 14 -47
-3 -102 -10 -122 -14 -73 -17 -73 -14 59 261 56 116 70 138 92 142 73 15 266
27 339 22 94 -8 95 -7 63 67 -36 83 -54 86 -306 61z"/>
<path d="M1833 1131 c-145 -53 -284 -212 -359 -411 -37 -101 -41 -243 -7 -305
41 -77 127 -133 206 -136 55 -3 131 32 211 94 58 46 146 140 146 157 0 27 -28
16 -73 -27 -111 -107 -220 -164 -283 -149 -38 10 -64 61 -64 129 0 53 2 58 27
68 64 24 209 103 259 140 101 77 154 175 170 320 l6 56 -41 32 c-68 54 -115
61 -198 32z m117 -196 c-20 -70 -79 -155 -154 -218 -71 -60 -153 -113 -162
-104 -9 9 15 75 54 151 57 109 153 204 230 226 39 11 47 -2 32 -55z"/>
</g>
</svg>