
<svg version="1.0" xmlns="http://www.w3.org/2000/svg"
 width="195.000000pt" height="219.000000pt" viewBox="0 0 195.000000 219.000000"
 preserveAspectRatio="xMidYMid meet">
    
<g transform="translate(0.000000,219.000000) scale(0.100000,-0.100000)"
fill="#4284F2" stroke="none">
<path d="M915 2021 c-22 -11 -83 -38 -135 -61 -52 -23 -123 -55 -158 -71 -35
-16 -65 -29 -68 -29 -2 0 -32 -13 -66 -29 -92 -42 -185 -84 -251 -112 l-58
-24 4 -320 c6 -399 20 -480 122 -691 112 -231 309 -421 538 -517 99 -41 158
-41 259 2 222 94 423 288 533 515 102 211 116 292 122 691 l4 320 -58 24 c-56
24 -131 57 -238 106 -27 12 -88 39 -135 60 -47 20 -113 50 -148 66 -34 16 -64
29 -66 29 -3 0 -34 14 -69 30 -76 35 -79 35 -132 11z m527 -601 c32 -33 58
-65 58 -71 0 -14 -693 -709 -706 -709 -5 0 -89 80 -187 178 l-177 177 68 68
69 68 112 -112 112 -113 287 287 c158 158 291 287 296 287 5 0 35 -27 68 -60z"/>
</g>
</svg>
